<svg width="1292" height="283" viewBox="0 0 1292 283" fill="none" xmlns="http://www.w3.org/2000/svg">
<path d="M150 32.2882L0 282.288H50L170 212.288H91L150 112.288L250 282.288H300L150 32.2882Z" fill="url(#paint0_linear_2003_4)"/>
<path d="M319.866 154.288H320L440 282.288H375L287.37 184.753L258 212.288L236.35 176.288L305 107.288H370L319.866 154.288Z" fill="#0D1B2A"/>
<path d="M320 92.2882L375 32.2882L440 32.2882L380 92.2882L320 92.2882Z" fill="#00CFFF"/>
<path d="M522 267V167L522 67" stroke="#8E8E93" stroke-width="2"/>
<path d="M621.861 167H600.77L632.907 73.9091H658.27L690.361 167H669.27L645.952 95.1818H645.225L621.861 167ZM620.543 130.409H670.361V145.773H620.543V130.409ZM737.811 73.9091H759.857L781.084 114H781.993L803.22 73.9091H825.266L791.311 134.091V167H771.766V134.091L737.811 73.9091ZM944.716 73.9091H964.398V134.364C964.398 141.152 962.777 147.091 959.534 152.182C956.322 157.273 951.822 161.242 946.034 164.091C940.246 166.909 933.504 168.318 925.807 168.318C918.08 168.318 911.322 166.909 905.534 164.091C899.746 161.242 895.246 157.273 892.034 152.182C888.822 147.091 887.216 141.152 887.216 134.364V73.9091H906.898V132.682C906.898 136.227 907.67 139.379 909.216 142.136C910.792 144.894 913.004 147.061 915.852 148.636C918.701 150.212 922.019 151 925.807 151C929.625 151 932.943 150.212 935.761 148.636C938.61 147.061 940.807 144.894 942.352 142.136C943.928 139.379 944.716 136.227 944.716 132.682V73.9091ZM1082.29 100.682C1081.93 97.0151 1080.37 94.1667 1077.61 92.1364C1074.85 90.1061 1071.11 89.0909 1066.38 89.0909C1063.17 89.0909 1060.46 89.5455 1058.25 90.4545C1056.03 91.3333 1054.34 92.5606 1053.15 94.1364C1052 95.7121 1051.43 97.5 1051.43 99.5C1051.37 101.167 1051.72 102.621 1052.47 103.864C1053.26 105.106 1054.34 106.182 1055.7 107.091C1057.06 107.97 1058.64 108.742 1060.43 109.409C1062.22 110.045 1064.12 110.591 1066.15 111.045L1074.52 113.045C1078.58 113.955 1082.31 115.167 1085.7 116.682C1089.09 118.197 1092.03 120.061 1094.52 122.273C1097 124.485 1098.93 127.091 1100.29 130.091C1101.68 133.091 1102.4 136.53 1102.43 140.409C1102.4 146.106 1100.94 151.045 1098.06 155.227C1095.22 159.379 1091.09 162.606 1085.7 164.909C1080.34 167.182 1073.87 168.318 1066.29 168.318C1058.78 168.318 1052.23 167.167 1046.65 164.864C1041.11 162.561 1036.78 159.152 1033.65 154.636C1030.56 150.091 1028.94 144.47 1028.79 137.773H1047.84C1048.05 140.894 1048.94 143.5 1050.52 145.591C1052.12 147.652 1054.26 149.212 1056.93 150.273C1059.62 151.303 1062.67 151.818 1066.06 151.818C1069.4 151.818 1072.29 151.333 1074.75 150.364C1077.23 149.394 1079.15 148.045 1080.52 146.318C1081.88 144.591 1082.56 142.606 1082.56 140.364C1082.56 138.273 1081.94 136.515 1080.7 135.091C1079.49 133.667 1077.7 132.455 1075.34 131.455C1073 130.455 1070.14 129.545 1066.75 128.727L1056.61 126.182C1048.76 124.273 1042.56 121.288 1038.02 117.227C1033.47 113.167 1031.22 107.697 1031.25 100.818C1031.22 95.1818 1032.72 90.2576 1035.75 86.0455C1038.81 81.8333 1043 78.5455 1048.34 76.1818C1053.67 73.8182 1059.73 72.6364 1066.52 72.6364C1073.43 72.6364 1079.46 73.8182 1084.61 76.1818C1089.79 78.5455 1093.82 81.8333 1096.7 86.0455C1099.58 90.2576 1101.06 95.1364 1101.15 100.682H1082.29ZM1166.87 167V73.9091H1186.55V112.318H1226.5V73.9091H1246.14V167H1226.5V128.545H1186.55V167H1166.87Z" fill="black"/>
<path d="M737.73 240V193.455H743.366V216.545H743.912L764.821 193.455H772.185L752.639 214.455L772.185 240H765.366L749.185 218.364L743.366 224.909V240H737.73ZM805.08 240V193.455H810.716V214.182H835.535V193.455H841.171V240H835.535V219.182H810.716V240H805.08ZM879.964 240H874.055L891.146 193.455H896.964L914.055 240H908.146L894.237 200.818H893.873L879.964 240ZM882.146 221.818H905.964V226.818H882.146V221.818ZM983.814 193.455V240H978.36L952.996 203.455H952.541V240H946.905V193.455H952.36L977.814 230.091H978.269V193.455H983.814ZM1022.6 240H1016.69L1033.78 193.455H1039.6L1056.69 240H1050.78L1036.87 200.818H1036.51L1022.6 240ZM1024.78 221.818H1048.6V226.818H1024.78V221.818ZM1089.54 240V193.455H1095.18V235H1116.82V240H1089.54Z" fill="url(#paint1_linear_2003_4)"/>
<line x1="601" y1="216" x2="676" y2="216" stroke="#1A5CFF" stroke-width="2"/>
<line x1="1171" y1="216" x2="1246" y2="216" stroke="#00CFFF" stroke-width="2"/>
<defs>
<linearGradient id="paint0_linear_2003_4" x1="1.42694e-05" y1="282.288" x2="168.5" y2="215.788" gradientUnits="userSpaceOnUse">
<stop stop-color="#00CFFF"/>
<stop offset="1" stop-color="#1A5CFF"/>
</linearGradient>
<linearGradient id="paint1_linear_2003_4" x1="560" y1="217" x2="1292" y2="217" gradientUnits="userSpaceOnUse">
<stop stop-color="#1A5CFF"/>
<stop offset="1" stop-color="#00CFFF"/>
</linearGradient>
</defs>
</svg>
